g Diamnet
v -0.375 0.312805 -0.649519
v 0 -0.657212 0
v 0.375 0.312805 -0.649519
v -0.75 0.312805 0
v 0 -0.657212 0
v -0.375 0.312805 -0.649519
v -0.375 0.312805 0.649519
v 0 -0.657212 0
v -0.75 0.312805 0
v 0.375 0.312805 0.649519
v 0 -0.657212 0
v -0.375 0.312805 0.649519
v 0.75 0.312805 0
v 0 -0.657212 0
v 0.375 0.312805 0.649519
v 0.375 0.312805 -0.649519
v 0 -0.657212 0
v 0.75 0.312805 0
v -0.266351 0.657212 -0.461334
v 0.266351 0.657212 -0.461334
v 0 0.657212 0
v -0.532703 0.657212 0
v -0.266351 0.657212 0.461334
v 0.266351 0.657212 0.461334
v 0.532703 0.657212 0
v -0.266351 0.657212 -0.461334
v 0.375 0.312805 -0.649519
v 0.266351 0.657212 -0.461334
v -0.375 0.312805 -0.649519
v -0.532703 0.657212 0
v -0.375 0.312805 -0.649519
v -0.266351 0.657212 -0.461334
v -0.75 0.312805 0
v -0.266351 0.657212 0.461334
v -0.75 0.312805 0
v -0.532703 0.657212 0
v -0.375 0.312805 0.649519
v 0.266351 0.657212 0.461334
v -0.375 0.312805 0.649519
v -0.266351 0.657212 0.461334
v 0.375 0.312805 0.649519
v 0.532703 0.657212 0
v 0.375 0.312805 0.649519
v 0.266351 0.657212 0.461334
v 0.75 0.312805 0
v 0.266351 0.657212 -0.461334
v 0.75 0.312805 0
v 0.532703 0.657212 0
v 0.375 0.312805 -0.649519
vt 0.416667 0.68844
vt 0.5 0.3125
vt 0.375 0.68844
vt 0.458333 0.68844
vt 0.5 0.3125
vt 0.416667 0.68844
vt 0.5 0.68844
vt 0.5 0.3125
vt 0.458333 0.68844
vt 0.541667 0.68844
vt 0.5 0.3125
vt 0.5 0.68844
vt 0.583333 0.68844
vt 0.5 0.3125
vt 0.541667 0.68844
vt 0.625 0.68844
vt 0.5 0.3125
vt 0.583333 0.68844
vt 0.421875 0.979066
vt 0.578125 0.979066
vt 0.5 0.8375
vt 0.34375 0.84375
vt 0.421875 0.708434
vt 0.578125 0.708434
vt 0.65625 0.84375
vt 0.421875 0.979066
vt 0.578125 0.979066
vt 0.578125 0.979066
vt 0.421875 0.979066
vt 0.34375 0.84375
vt 0.421875 0.979066
vt 0.421875 0.979066
vt 0.34375 0.84375
vt 0.421875 0.708434
vt 0.34375 0.84375
vt 0.34375 0.84375
vt 0.421875 0.708434
vt 0.578125 0.708434
vt 0.421875 0.708434
vt 0.421875 0.708434
vt 0.578125 0.708434
vt 0.65625 0.84375
vt 0.578125 0.708434
vt 0.578125 0.708434
vt 0.65625 0.84375
vt 0.578125 0.979066
vt 0.65625 0.84375
vt 0.65625 0.84375
vt 0.578125 0.979066
vn 0 -0.5563841 -0.8309252
vn 0 -0.5563841 -0.8309252
vn 0 -0.5563841 -0.8309252
vn -0.7196026 -0.5563837 -0.4154627
vn -0.7196026 -0.5563837 -0.4154627
vn -0.7196026 -0.5563837 -0.4154627
vn -0.7196026 -0.5563837 0.4154627
vn -0.7196026 -0.5563837 0.4154627
vn -0.7196026 -0.5563837 0.4154627
vn 0 -0.5563841 0.8309252
vn 0 -0.5563841 0.8309252
vn 0 -0.5563841 0.8309252
vn 0.7196026 -0.5563837 0.4154627
vn 0.7196026 -0.5563837 0.4154627
vn 0.7196026 -0.5563837 0.4154627
vn 0.7196026 -0.5563837 -0.4154627
vn 0.7196026 -0.5563837 -0.4154627
vn 0.7196026 -0.5563837 -0.4154627
vn 0 1 0
vn 0 1 0
vn 0 1 0
vn 0 1 0
vn 0 1 0
vn 0 1 0
vn 0 1 0
vn 0 0.4794928 -0.8775457
vn 0 0.4794928 -0.8775457
vn 0 0.4794928 -0.8775457
vn 0 0.4794928 -0.8775457
vn -0.7599769 0.4794929 -0.4387729
vn -0.7599769 0.4794929 -0.4387729
vn -0.7599769 0.4794929 -0.4387729
vn -0.7599769 0.4794929 -0.4387729
vn -0.7599769 0.4794929 0.4387729
vn -0.7599769 0.4794929 0.4387729
vn -0.7599769 0.4794929 0.4387729
vn -0.7599769 0.4794929 0.4387729
vn 0 0.4794933 0.8775455
vn 0 0.4794928 0.8775457
vn 0 0.4794933 0.8775455
vn 0 0.4794928 0.8775457
vn 0.7599769 0.4794929 0.4387729
vn 0.7599769 0.4794929 0.4387729
vn 0.7599769 0.4794929 0.4387729
vn 0.7599769 0.4794929 0.4387729
vn 0.7599769 0.4794929 -0.4387729
vn 0.7599769 0.4794929 -0.4387729
vn 0.7599769 0.4794929 -0.4387729
vn 0.7599769 0.4794929 -0.4387729
g Diamnet_0
f 3/3/3 2/2/2 1/1/1
f 6/6/6 5/5/5 4/4/4
f 9/9/9 8/8/8 7/7/7
f 12/12/12 11/11/11 10/10/10
f 15/15/15 14/14/14 13/13/13
f 18/18/18 17/17/17 16/16/16
f 21/21/21 20/20/20 19/19/19
f 21/21/21 19/19/19 22/22/22
f 21/21/21 22/22/22 23/23/23
f 21/21/21 23/23/23 24/24/24
f 21/21/21 24/24/24 25/25/25
f 21/21/21 25/25/25 20/20/20
f 28/28/28 27/27/27 26/26/26
f 26/26/26 27/27/27 29/29/29
f 32/32/32 31/31/31 30/30/30
f 30/30/30 31/31/31 33/33/33
f 36/36/36 35/35/35 34/34/34
f 34/34/34 35/35/35 37/37/37
f 40/40/40 39/39/39 38/38/38
f 38/38/38 39/39/39 41/41/41
f 44/44/44 43/43/43 42/42/42
f 42/42/42 43/43/43 45/45/45
f 48/48/48 47/47/47 46/46/46
f 46/46/46 47/47/47 49/49/49
